<svg aria-hidden="true" style="position: absolute; width: 0; height: 0; overflow: hidden;" version="1.1" xmlns="http://www.w3.org/2000/svg" xmlns:xlink="http://www.w3.org/1999/xlink">
    <defs>
<symbol id="icon-closemobilemenu" viewBox="0 0 32 32">
    <path d="M23.733 10.304l-1.504-1.504-5.963 5.963-5.963-5.963-1.504 1.504 5.963 5.963-5.963 5.963 1.504 1.504 5.963-5.963 5.963 5.963 1.504-1.504-5.963-5.963 5.963-5.963z"></path>
</symbol>
<symbol id="icon-envelopetablet" viewBox="0 0 45 32">
    <path d="M40.6 0h-36.4c-2.316 0-4.2 1.794-4.2 4v24c0 2.206 1.884 4 4.2 4h36.4c2.316 0 4.2-1.794 4.2-4v-24c0-2.206-1.884-4-4.2-4v0zM40.6 2.667c0.19 0 0.371 0.038 0.537 0.103l-18.737 15.466-18.737-15.466c0.165-0.066 0.346-0.103 0.537-0.103h36.4zM40.6 29.333h-36.4c-0.772 0-1.4-0.598-1.4-1.333v-22.413l18.683 15.421c0.264 0.217 0.591 0.326 0.917 0.326s0.654-0.108 0.917-0.326l18.683-15.421v22.413c0 0.736-0.628 1.333-1.4 1.333v0z"></path>
</symbol>
<symbol id="icon-openmobilemenu" viewBox="0 0 32 32">
    <path d="M6.4 11.733v-2.133h19.2v2.133h-19.2zM6.4 17.067h19.2v-2.133h-19.2v2.133zM6.4 22.4h19.2v-2.133h-19.2v2.133z"></path>
</symbol>
<symbol id="icon-smartphonetablet" viewBox="0 0 23 32">
    <path fill="#757575" style="fill: var(--color1, #757575)" d="M19.429 0h-16c-1.891 0-3.429 1.346-3.429 3v26c0 1.654 1.538 3 3.429 3h16c1.891 0 3.429-1.346 3.429-3v-26c0-1.654-1.538-3-3.429-3zM3.429 2h16c0.631 0 1.143 0.448 1.143 1v21h-18.286v-21c0-0.552 0.512-1 1.143-1zM19.429 30h-16c-0.631 0-1.143-0.448-1.143-1v-3h18.286v3c0 0.552-0.512 1-1.143 1z"></path>
    <path fill="#757575" style="fill: var(--color1, #757575)" d="M5.38 27.293c0.446 0.391 0.446 1.024 0 1.415s-1.17 0.391-1.616 0c-0.446-0.391-0.446-1.024 0-1.415s1.17-0.391 1.616 0z"></path>
</symbol>
</defs>
</svg>
